mtllib cube_1.mtl
v -0.02 -0.02  0.02
v  0.02 -0.02  0.02
v  0.02  0.02  0.02
v -0.02  0.02  0.02
v -0.02 -0.02 -0.02
v  0.02 -0.02 -0.02
v  0.02  0.02 -0.02
v -0.02  0.02 -0.02
vt 0 0
vt 1 0
vt 1 1
vt 0 1
vn  0  0  1
vn  0  0 -1
vn  1  0  0
vn -1  0  0
vn  0  1  0
vn  0 -1  0
usemtl CubeFace
f 1/1/1 2/2/1 3/3/1
f 1/1/1 3/3/1 4/4/1
f 5/1/2 8/2/2 7/3/2
f 5/1/2 7/3/2 6/4/2
f 2/1/3 6/2/3 7/3/3
f 2/1/3 7/3/3 3/4/3
f 5/1/4 1/2/4 4/3/4
f 5/1/4 4/3/4 8/4/4
f 4/1/5 3/2/5 7/3/5
f 4/1/5 7/3/5 8/4/5
f 5/1/6 6/2/6 2/3/6
f 5/1/6 2/3/6 1/4/6
